<svg width="50" height="50" viewBox="0 0 50 50" fill="none" xmlns="http://www.w3.org/2000/svg">
<path d="M6.24984 16.6667H20.8332C22.0693 16.6667 23.2777 16.3001 24.3055 15.6133C25.3333 14.9266 26.1344 13.9505 26.6074 12.8084C27.0805 11.6664 27.2042 10.4097 26.9631 9.19735C26.7219 7.98496 26.1267 6.87132 25.2526 5.99724C24.3785 5.12316 23.2649 4.52791 22.0525 4.28675C20.8401 4.04559 19.5834 4.16936 18.4414 4.64241C17.2994 5.11546 16.3232 5.91654 15.6365 6.94435C14.9497 7.97215 14.5832 9.18053 14.5832 10.4167M8.33317 33.3333H31.2498C32.486 33.3333 33.6943 33.6999 34.7221 34.3866C35.75 35.0734 36.551 36.0495 37.0241 37.1916C37.4971 38.3336 37.6209 39.5903 37.3797 40.8026C37.1386 42.015 36.5433 43.1287 35.6693 44.0027C34.7952 44.8768 33.6815 45.4721 32.4692 45.7132C31.2568 45.9544 30.0001 45.8306 28.8581 45.3576C27.716 44.8845 26.7399 44.0834 26.0532 43.0556C25.3664 42.0278 24.9998 40.8195 24.9998 39.5833M4.1665 25H39.5832C40.8193 25 42.0277 24.6334 43.0555 23.9467C44.0833 23.2599 44.8844 22.2838 45.3574 21.1418C45.8305 19.9997 45.9542 18.7431 45.7131 17.5307C45.4719 16.3183 44.8767 15.2047 44.0026 14.3306C43.1285 13.4565 42.0149 12.8612 40.8025 12.6201C39.5901 12.3789 38.3334 12.5027 37.1914 12.9757C36.0494 13.4488 35.0732 14.2499 34.3865 15.2777C33.6997 16.3055 33.3332 17.5139 33.3332 18.75" stroke="#C77DFF" stroke-width="4" stroke-linecap="round" stroke-linejoin="round"/>
</svg>
