<svg width="50" height="50" viewBox="0 0 50 50" fill="none" xmlns="http://www.w3.org/2000/svg">
<g clip-path="url(#clip0_26_10)">
<path fill-rule="evenodd" clip-rule="evenodd" d="M21.3647 2.88958L23.9897 4.46458C27.3195 6.43213 29.8774 9.47807 31.2397 13.0979C31.7022 12.0562 32.2522 11.0458 32.7626 10.025L34.8064 12.0687C39.3939 16.6562 43.7501 23.5312 43.7501 30.2083C43.7501 39.1625 38.2293 44.8396 29.3959 45.8208L26.5001 46.1417L27.1334 43.2979C27.6272 41.0729 27.7168 39.6188 27.6126 38.6C27.4876 37.3188 26.8793 36.3125 26.1209 35.3125C25.3959 34.3542 24.6772 33.3937 24.1022 32.3333C21.7376 34.2021 20.8209 35.8896 20.5272 37.2792C20.1522 39.0583 20.6834 40.8771 21.6543 42.8188L23.3668 46.2438L19.5626 45.8208C14.1959 45.225 8.90843 41.6396 6.8251 36.4083C4.64801 30.9354 6.1876 24.3125 13.2209 18.2167C17.8876 14.1729 20.3584 8.92916 21.3647 2.88958ZM24.1397 9.76458C22.5522 14.2229 19.5043 18.2854 15.948 21.3667C9.88343 26.6229 9.33968 31.4583 10.698 34.8667C11.7084 37.4083 13.8897 39.4979 16.4751 40.6833C16.1712 39.2796 16.1627 37.828 16.4501 36.4208C17.1293 33.2 19.4459 30.1812 23.8959 27.4L26.1397 25.9979L26.9772 28.5083C27.7105 30.7083 29.2313 32.2646 30.4209 34.1958C31.7293 36.3208 31.9793 38.7583 31.7126 41.1917C37.1709 39.8271 39.5834 35.6875 39.5834 30.2083C39.5834 25.5792 36.7918 21.0375 34.0209 17.4875C32.8793 20.0458 30.473 20.9458 28.1251 22.1208V18.75C28.1251 15.8979 26.9647 12.4208 24.1397 9.76666V9.76458Z" fill="#FFB703"/>
</g>
<defs>
<clipPath id="clip0_26_10">
<rect width="50" height="50" fill="white"/>
</clipPath>
</defs>
</svg>
