<svg width="50" height="50" viewBox="0 0 50 50" fill="none" xmlns="http://www.w3.org/2000/svg">
<path d="M45.5835 4.47916L43.0835 5.3125C38.7989 6.80113 34.2236 7.25795 29.7293 6.64583C25.0067 5.91294 20.1729 6.5642 15.8126 8.52083C13.5011 9.50509 11.4725 11.0519 9.91154 13.0204C8.35054 14.989 7.30673 17.3167 6.87514 19.7917C6.43611 22.1718 6.48102 24.6159 7.00718 26.9783C7.53335 29.3407 8.52999 31.5729 9.93764 33.5417C9.81264 33.9792 9.68763 34.4167 9.58347 34.8542C8.7373 38.4521 8.31775 42.1372 8.33347 45.8333H12.5001C12.696 42.808 13.1067 39.8004 13.7293 36.8333C16.6198 38.3942 19.8613 39.1902 23.146 39.1458C26.2095 39.1437 29.2414 38.5274 32.0626 37.3333C47.9168 30.5625 45.8335 8.04166 45.8335 7.10416L45.5835 4.47916ZM30.4376 33.5C25.0001 35.8125 18.5001 35.4167 14.8543 32.5625C15.4705 30.5021 16.3161 28.5175 17.3751 26.6458C18.1985 25.2988 19.1698 24.0479 20.271 22.9167C21.3962 21.7733 22.6635 20.7791 24.0418 19.9583C26.8899 18.2553 30.0485 17.1363 33.3335 16.6667V14.5833C29.5538 14.4525 25.7974 15.2238 22.3751 16.8333C18.876 18.5407 15.9085 21.1697 13.7918 24.4375C13.0067 25.6856 12.3106 26.9874 11.7085 28.3333C10.7429 25.8632 10.4692 23.1766 10.9168 20.5625C11.2101 18.7324 11.9645 17.007 13.109 15.5491C14.2535 14.0912 15.7503 12.9486 17.4585 12.2292C19.9493 11.0649 22.6673 10.4672 25.4168 10.4792C26.7085 10.4792 27.9793 10.6042 29.3126 10.7083C33.4883 11.2471 37.7279 10.9998 41.8126 9.97916C41.6668 15.7292 40.6251 29.1667 30.4376 33.5Z" fill="white"/>
</svg>
