<svg width="50" height="50" viewBox="0 0 50 50" fill="none" xmlns="http://www.w3.org/2000/svg">
<path d="M24.9996 37.5C24.0824 37.5001 23.1908 37.1976 22.4631 36.6394C21.7354 36.0811 21.2122 35.2984 20.9746 34.4125" stroke="#00B4D8" stroke-width="4" stroke-linecap="round"/>
<path d="M21.7164 9.74792C23.031 7.5125 23.6893 6.39375 24.6289 6.22708C24.8742 6.18272 25.1254 6.18272 25.3706 6.22708C26.3102 6.39375 26.9685 7.5125 28.2831 9.74792L31.7581 15.6562C34.1868 19.7855 36.0818 24.2062 37.3977 28.8125C39.5373 36.2979 33.9185 43.75 26.131 43.75H23.8685C16.0831 43.75 10.4623 36.2979 12.6018 28.8125C13.9178 24.2062 15.8128 19.7855 18.2414 15.6562L21.7164 9.74792Z" stroke="#00B4D8" stroke-width="4"/>
</svg>
